<svg width="255" height="81" viewBox="0 0 255 81" fill="none" xmlns="http://www.w3.org/2000/svg">
<rect width="255" height="81" fill="#2F70F2"/>
<path d="M9.12 69V23.64H7.6L8.72 13H23.36C27.4667 13 30.4 13.9067 32.16 15.72C33.9733 17.48 34.88 20.3867 34.88 24.44V42.68C34.88 46.7333 33.9733 49.6667 32.16 51.48C30.4 53.24 27.4667 54.12 23.36 54.12H20V69H9.12ZM23.6 23.64H20V43.48H23.6C23.8667 43.48 24 43.3467 24 43.08V24.04C24 23.7733 23.8667 23.64 23.6 23.64ZM39.3488 69V23.64H38.0688L38.8688 13H50.2288V58.36H51.8288L52.6288 69H39.3488ZM66.5419 69C62.4352 69 59.4752 68.12 57.6619 66.36C55.9019 64.5467 55.0219 61.6133 55.0219 57.56V40.44C55.0219 36.3333 55.8752 33.4 57.5819 31.64C59.3419 29.88 62.2219 29 66.2219 29H66.9419C68.3285 29 69.5819 29.24 70.7019 29.72V29H81.5819V58.36H82.3819L83.1819 69H70.7019V64.76L67.8219 69H66.5419ZM66.3019 39.64C66.0352 39.64 65.9019 39.7733 65.9019 40.04V57.96C65.9019 58.2267 66.0352 58.36 66.3019 58.36H70.7019V39.64H66.3019ZM86.3688 69V39.64H84.7688L85.5688 29H97.2488V33.24L100.129 29H101.409C105.515 29 108.449 29.88 110.209 31.64C112.022 33.4 112.929 36.3333 112.929 40.44V58.36H114.529L113.729 69H102.049V40.04C102.049 39.7733 101.915 39.64 101.649 39.64H97.2488V69H86.3688ZM119.276 69V23.64H117.756L118.876 13H141.756L141.116 23.64H130.156V35.64H139.996L139.356 46.28H130.156V69H119.276ZM146.224 69V23.64H144.944L145.744 13H157.104V58.36H158.704L159.504 69H146.224ZM177.186 40.04C177.186 39.7733 177.053 39.64 176.786 39.64H172.786C172.52 39.64 172.386 39.7733 172.386 40.04V58.6C172.386 58.8667 172.52 59 172.786 59H176.786C177.053 59 177.186 58.8667 177.186 58.6V40.04ZM161.506 58.2V40.44C161.506 36.3333 162.386 33.4 164.146 31.64C165.96 29.88 168.92 29 173.026 29H176.546C180.653 29 183.586 29.88 185.346 31.64C187.16 33.4 188.066 36.3333 188.066 40.44V58.2C188.066 62.2533 187.16 65.1867 185.346 67C183.586 68.76 180.653 69.64 176.546 69.64H173.026C168.92 69.64 165.96 68.76 164.146 67C162.386 65.24 161.506 62.3067 161.506 58.2ZM234.703 29V58.36H235.503L236.303 69H223.823V64.76L220.943 69H219.663C214.116 69 210.623 67.2667 209.183 63.8L205.663 69H203.983C199.876 69 196.916 68.12 195.103 66.36C193.343 64.5467 192.463 61.6133 192.463 57.56V39.64H190.863L191.663 29H203.343V57.96C203.343 58.2267 203.476 58.36 203.743 58.36H208.143C208.143 58.1467 208.143 57.88 208.143 57.56V29H219.023V57.96C219.023 58.2267 219.156 58.36 219.423 58.36H223.823V29H234.703ZM238.694 69V60.76H246.934V69H238.694Z" fill="white"/>
</svg>
